<?xml version="1.0" standalone="no"?>
<!DOCTYPE svg PUBLIC "-//W3C//DTD SVG 20010904//EN"
 "http://www.w3.org/TR/2001/REC-SVG-20010904/DTD/svg10.dtd">
<svg version="1.0" xmlns="http://www.w3.org/2000/svg"
 width="334.000000pt" height="305.000000pt" viewBox="0 0 334.000000 305.000000"
 preserveAspectRatio="xMidYMid meet">

<g transform="translate(0.000000,305.000000) scale(0.100000,-0.100000)"
fill="#000000" stroke="none">
<path d="M2160 2460 c-114 -24 -171 -44 -260 -92 -85 -45 -156 -97 -217 -160
l-43 -44 83 -194 c46 -107 87 -204 91 -215 7 -17 12 -10 36 40 89 186 270 309
476 322 149 10 287 -36 419 -139 l70 -55 109 125 c60 68 109 132 110 140 1 20
-121 123 -206 174 -178 106 -448 145 -668 98z"/>
<path d="M953 2363 c-22 -54 -120 -285 -218 -513 -299 -700 -478 -1122 -496
-1167 l-9 -23 198 0 197 0 81 198 81 197 296 3 c164 1 297 6 297 10 0 4 -30
82 -66 174 l-66 168 -158 2 -158 3 57 140 c32 77 84 204 116 283 32 78 61 142
65 142 4 0 83 -189 175 -421 93 -231 188 -454 212 -495 154 -262 466 -434 791
-434 276 0 512 90 674 257 l47 48 -122 131 -121 131 -73 -58 c-129 -103 -250
-148 -393 -148 -180 0 -358 85 -458 221 -22 31 -73 134 -119 243 -44 105 -158
373 -253 598 l-173 407 -182 0 -181 0 -41 -97z"/>
</g>
</svg>
